<svg width="46" height="45" viewBox="0 0 46 45" fill="none" xmlns="http://www.w3.org/2000/svg">
<path d="M42.2656 31.6406C41.3516 28.6875 38.3984 27 35.5859 27.8438C33.2656 28.5469 30.1016 29.4609 27.6406 30.1641C27.7812 29.3203 27.7109 28.6875 27.5 28.125C26.7969 26.4375 24.9688 25.7344 23.4219 25.7344H16.4609C15.8984 25.7344 15.3359 25.4531 14.7734 24.8906C14 24.1875 13.0156 23.7656 11.9609 23.7656H6.33594C3.80469 23.7656 1.76562 25.875 1.76562 28.4766V37.4063C1.76562 40.0781 3.875 42.2578 6.40625 42.2578H13.1563C14 42.2578 14.8438 41.9766 15.6172 41.5547C17.5859 42.6797 19.8359 43.2422 22.0859 43.2422C23.4922 43.2422 24.8281 43.0313 26.0938 42.6094L38.6094 38.8125H38.6797C42.4062 37.4063 42.9688 34.1016 42.2656 31.6406C42.3359 31.7109 42.2656 31.7109 42.2656 31.6406ZM6.40625 39.1641C5.5625 39.1641 4.92969 38.3906 4.92969 37.4766V28.6172C4.92969 27.7734 5.5625 27.0703 6.33594 27.0703H11.9609C12.3125 27.0703 12.5234 27.2109 12.6641 27.3516C12.875 27.5625 13.0859 27.7031 13.2969 27.8438V39.2344H13.2266H6.40625V39.1641ZM37.625 35.8594L25.1094 39.6563C24.125 39.9375 23.1406 40.1484 22.0859 40.1484C20.3281 40.1484 18.6406 39.7266 17.0938 38.8828L16.3906 38.5313V28.9688H16.4609H23.4219C23.9844 28.9688 24.4766 29.25 24.5469 29.3906C24.6172 29.5313 24.4766 30.3047 23.0703 31.7109C22.5078 32.2031 22.4375 33.0469 22.7891 33.6797C23.4219 34.8047 24.125 34.5938 26.4453 33.8906C27.5703 33.5391 29.0469 33.1172 30.5234 32.6953C33.4766 31.8516 36.4297 30.9375 36.4297 30.9375C37.625 30.5859 38.8203 31.3594 39.2422 32.625C39.5938 33.6797 39.5234 35.1563 37.625 35.8594Z" fill="#0468B1"/>
<path d="M33.7578 22.7109C39.5234 22.7109 44.3047 18 44.3047 12.1641C44.3047 6.32812 39.5938 1.61719 33.7578 1.61719C27.9219 1.61719 23.2109 6.32812 23.2109 12.1641C23.2109 18 27.9219 22.7109 33.7578 22.7109ZM33.7578 4.85156C37.8359 4.85156 41.1406 8.15625 41.1406 12.2344C41.1406 16.3125 37.8359 19.6172 33.7578 19.6172C29.6797 19.6172 26.375 16.3125 26.375 12.2344C26.375 8.15625 29.6797 4.85156 33.7578 4.85156Z" fill="#0468B1"/>
<path d="M34.0391 16.1016C34.3203 16.3828 34.7422 16.5938 35.1641 16.5938C35.5859 16.5938 36.0078 16.4531 36.2891 16.1016C36.9219 15.4688 36.9219 14.4844 36.2891 13.8516L34.8828 12.4453V9.98438C34.8828 9.14062 34.1797 8.4375 33.3359 8.4375C32.4922 8.4375 31.7891 9.14062 31.7891 9.98438V13.1484C31.7891 13.5703 31.9297 13.9922 32.2813 14.2734L34.0391 16.1016Z" fill="#0468B1"/>
</svg>
