<svg width="34" height="43" viewBox="0 0 34 43" fill="none" xmlns="http://www.w3.org/2000/svg">
<path d="M31.9063 7.08594L25.2266 1.39063C24.3828 0.617188 23.2578 0.265625 22.1328 0.265625H5.1875C2.51563 0.265625 0.40625 2.44531 0.40625 5.04688V38.0234C0.40625 40.6953 2.58594 42.8047 5.1875 42.8047H13.9063C14.75 42.8047 15.5234 42.1016 15.5234 41.1875C15.5234 40.2734 14.8203 39.5703 13.9063 39.5703H5.1875C4.27344 39.5703 3.57031 38.8672 3.57031 37.9531V5.04688C3.57031 4.13281 4.27344 3.42969 5.1875 3.42969H22.1328C22.4844 3.42969 22.9063 3.57031 23.1875 3.85156L29.8672 9.54688C30.2188 9.82812 30.4297 10.3203 30.4297 10.8125V39.4297C30.4297 39.5703 30.2891 39.7109 30.1484 39.7109C29.3047 39.7109 28.5312 40.4141 28.5312 41.3281C28.5312 42.2422 29.2344 42.9453 30.1484 42.9453C32.0469 42.9453 33.5937 41.3984 33.5937 39.5V10.7422C33.5937 9.33594 32.9609 8 31.9063 7.08594Z" fill="#0468B1"/>
<path d="M8.35156 11.9375H17.7031C18.5469 11.9375 19.3203 11.2344 19.3203 10.3203C19.3203 9.40625 18.6172 8.70312 17.7031 8.70312H8.35156C7.50781 8.70312 6.73438 9.40625 6.73438 10.3203C6.73438 11.2344 7.50781 11.9375 8.35156 11.9375Z" fill="#0468B1"/>
<path d="M8.35156 19.3203H24.3828C25.2266 19.3203 26 18.6172 26 17.7031C26 16.7891 25.2969 16.0859 24.3828 16.0859H8.35156C7.50781 16.0859 6.73438 16.7891 6.73438 17.7031C6.73438 18.6172 7.50781 19.3203 8.35156 19.3203Z" fill="#0468B1"/>
<path d="M21.9219 24.8047C18.7578 24.8047 16.1562 27.4063 16.1562 30.5703C16.1562 32.1875 16.8594 33.6641 17.9844 34.7187V41.1875C17.9844 41.75 18.2656 42.2422 18.7578 42.5234C19.25 42.8047 19.8125 42.8047 20.3047 42.5234L21.8516 41.6094L23.3984 42.5234C23.6094 42.6641 23.8906 42.7344 24.1719 42.7344C24.4531 42.7344 24.7344 42.6641 24.9453 42.5234C25.4375 42.2422 25.7188 41.75 25.7188 41.1875V34.7187C26.8438 33.6641 27.5469 32.1875 27.5469 30.5703C27.6172 27.3359 25.0859 24.8047 21.9219 24.8047ZM21.9219 27.9688C23.3281 27.9688 24.5234 29.0938 24.5234 30.5703C24.5234 32.0469 23.3281 33.1016 21.9219 33.1016C20.5156 33.1016 19.3203 31.9766 19.3203 30.5C19.3203 29.0234 20.5156 27.9688 21.9219 27.9688ZM22.625 38.4453C22.1328 38.1641 21.5703 38.1641 21.1484 38.4453V36.1953C21.4297 36.1953 21.6406 36.2656 21.9219 36.2656C22.2031 36.2656 22.4141 36.2656 22.6953 36.1953V38.4453H22.625Z" fill="#0468B1"/>
</svg>
