<svg width="46" height="45" viewBox="0 0 46 45" fill="none" xmlns="http://www.w3.org/2000/svg">
<path d="M42.6875 29.8828H39.7344V23.1328H42.6875C43.5312 23.1328 44.3047 22.4297 44.3047 21.5859C44.3047 20.7422 43.6016 19.9687 42.6875 19.9687H30.2422C30.9453 18.9844 31.5078 17.7891 31.9297 16.3125C32.9141 13.2187 32.6328 10.4062 31.1562 8.57812C29.9609 7.10156 28.2031 6.39843 26.1641 6.53906C25.6016 6.60937 25.0391 6.67968 24.4766 6.82031C24.0547 5.27343 23.2109 3.79687 21.875 2.46093C21.3125 1.82812 20.2578 1.75781 19.625 2.39062C18.9922 2.95312 18.9219 4.00781 19.5547 4.64062C20.1875 5.34375 20.6797 6.04687 21.0313 6.75C20.6094 6.67968 20.1875 6.60937 19.8359 6.60937C17.7969 6.46875 15.9688 7.17187 14.8438 8.64843C13.3672 10.4766 13.0859 13.3594 14.0703 16.3828C14.5625 17.7891 15.125 18.9844 15.7578 19.9687H8.30469C4.71875 19.9687 1.76562 22.9219 1.76562 26.5078C1.76562 28.4766 2.67969 30.2344 4.08594 31.5C2.67969 32.6953 1.76562 34.4531 1.76562 36.4922C1.76562 40.0781 4.71875 43.0312 8.30469 43.0312H39.1016C39.9453 43.0312 40.7188 42.3281 40.7188 41.4141C40.7188 40.5 40.0156 39.7969 39.1016 39.7969H35.375V33.0469H42.6875C43.5312 33.0469 44.3047 32.3437 44.3047 31.4297C44.3047 30.5156 43.5312 29.8828 42.6875 29.8828ZM17.3047 10.6172C17.7969 9.98437 18.5703 9.70312 19.5547 9.77343C20.3984 9.84375 21.7344 10.1953 22.3672 10.5469C22.7891 10.7578 23.2812 10.7578 23.7734 10.5469L24.3359 10.2656C24.9688 9.98437 25.6016 9.84375 26.3047 9.77343C27.2891 9.70312 28.0625 9.98437 28.5547 10.6172C29.3281 11.6016 29.4688 13.4297 28.8359 15.4687C28.0625 17.9297 26.4453 20.3906 24.4766 20.0391C24.1953 19.9687 23.9844 19.8984 23.7031 19.7578C23.4922 19.6172 23.2109 19.5469 22.9297 19.5469C22.6484 19.5469 22.4375 19.6172 22.1562 19.7578C21.8047 19.8984 21.5938 20.0391 21.3828 20.1094C19.4141 20.5312 17.7969 18 17.0234 15.5391C16.4609 13.3594 16.5312 11.6016 17.3047 10.6172ZM4.92969 26.5078C4.92969 24.6797 6.47656 23.1328 8.30469 23.1328H36.6406V29.8828H8.30469C6.40625 29.8828 4.92969 28.4062 4.92969 26.5078ZM32.2109 39.7969H8.30469C6.47656 39.7969 4.92969 38.25 4.92969 36.4219C4.92969 34.5937 6.40625 33.0469 8.30469 33.0469H32.2109V39.7969Z" fill="#0468B1"/>
</svg>
