<svg width="37" height="37" viewBox="0 0 37 37" fill="none" xmlns="http://www.w3.org/2000/svg">
<path d="M12.8751 18.5001L16.6251 22.2501L24.1251 14.7501M10.6907 4.80696C12.0357 4.69962 13.3125 4.17078 14.3395 3.29571C15.4999 2.30622 16.975 1.7627 18.5001 1.7627C20.0251 1.7627 21.5003 2.30622 22.6607 3.29571C23.6877 4.17078 24.9645 4.69962 26.3095 4.80696C27.8296 4.9279 29.2569 5.58663 30.3352 6.66494C31.4135 7.74325 32.0723 9.17055 32.1932 10.6907C32.3006 12.0357 32.8294 13.3125 33.7045 14.3395C34.694 15.4999 35.2375 16.975 35.2375 18.5001C35.2375 20.0251 34.694 21.5003 33.7045 22.6607C32.8294 23.6877 32.3006 24.9645 32.1932 26.3095C32.0723 27.8296 31.4135 29.2569 30.3352 30.3352C29.2569 31.4135 27.8296 32.0723 26.3095 32.1932C24.9645 32.3006 23.6877 32.8294 22.6607 33.7045C21.5003 34.694 20.0251 35.2375 18.5001 35.2375C16.975 35.2375 15.4999 34.694 14.3395 33.7045C13.3125 32.8294 12.0357 32.3006 10.6907 32.1932C9.17055 32.0723 7.74325 31.4135 6.66494 30.3352C5.58663 29.2569 4.9279 27.8296 4.80696 26.3095C4.69962 24.9645 4.17078 23.6877 3.29571 22.6607C2.30622 21.5003 1.7627 20.0251 1.7627 18.5001C1.7627 16.975 2.30622 15.4999 3.29571 14.3395C4.17078 13.3125 4.69962 12.0357 4.80696 10.6907C4.9279 9.17055 5.58663 7.74325 6.66494 6.66494C7.74325 5.58663 9.17055 4.9279 10.6907 4.80696Z" stroke="#272E35" stroke-width="3" stroke-linecap="round" stroke-linejoin="round"/>
</svg>
