<svg width="44" height="33" viewBox="0 0 44 33" fill="none" xmlns="http://www.w3.org/2000/svg">
<path d="M38.9453 0.609375H5.05469C2.66406 0.609375 0.765625 2.50781 0.765625 4.89844V20.9297C0.765625 23.3203 2.66406 25.2188 5.05469 25.2188H20.4531V29.2266H14.8984C14.0547 29.2266 13.2813 29.9297 13.2813 30.8438C13.2813 31.7578 13.9844 32.4609 14.8984 32.4609H29.2422C30.0859 32.4609 30.8594 31.7578 30.8594 30.8438C30.8594 29.9297 30.1562 29.2266 29.2422 29.2266H23.6875V25.2188H39.0859C41.4766 25.2188 43.375 23.3203 43.375 20.9297V4.89844C43.3047 2.50781 41.3359 0.609375 38.9453 0.609375ZM40.1406 20.9297C40.1406 21.5625 39.6484 22.0547 39.0156 22.0547H5.05469C4.42188 22.0547 3.92969 21.5625 3.92969 20.9297V4.89844C3.92969 4.26563 4.42188 3.77344 5.05469 3.77344H39.0156C39.6484 3.77344 40.1406 4.26563 40.1406 4.89844V20.9297Z" fill="#0468B1"/>
</svg>
