<svg width="34" height="43" viewBox="0 0 34 43" fill="none" xmlns="http://www.w3.org/2000/svg">
<path d="M32.1543 7.08594L25.4746 1.39063C24.6309 0.617188 23.5059 0.265625 22.3809 0.265625H5.43555C2.76367 0.265625 0.654297 2.44531 0.654297 5.04688V38.0234C0.654297 40.6953 2.83398 42.8047 5.43555 42.8047H14.1543C14.998 42.8047 15.7715 42.1016 15.7715 41.1875C15.7715 40.2734 15.0684 39.5703 14.1543 39.5703H5.43555C4.52148 39.5703 3.81836 38.8672 3.81836 37.9531V5.04688C3.81836 4.13281 4.52148 3.42969 5.43555 3.42969H22.3809C22.7324 3.42969 23.1543 3.57031 23.4356 3.85156L30.1152 9.54688C30.4668 9.82813 30.6777 10.3203 30.6777 10.8125V39.4297C30.6777 39.5703 30.5371 39.7109 30.3965 39.7109C29.5527 39.7109 28.7793 40.4141 28.7793 41.3281C28.7793 42.2422 29.4824 42.9453 30.3965 42.9453C32.2949 42.9453 33.8418 41.3984 33.8418 39.5V10.7422C33.8418 9.33594 33.209 8 32.1543 7.08594Z" fill="#0468B1"/>
<path d="M8.59961 11.9375H17.9512C18.7949 11.9375 19.5684 11.2344 19.5684 10.3203C19.5684 9.40625 18.8652 8.70312 17.9512 8.70312H8.59961C7.75586 8.70312 6.98242 9.40625 6.98242 10.3203C6.98242 11.2344 7.75586 11.9375 8.59961 11.9375Z" fill="#0468B1"/>
<path d="M8.59961 19.3203H24.6309C25.4746 19.3203 26.248 18.6172 26.248 17.7031C26.248 16.7891 25.5449 16.0859 24.6309 16.0859H8.59961C7.75586 16.0859 6.98242 16.7891 6.98242 17.7031C6.98242 18.6172 7.75586 19.3203 8.59961 19.3203Z" fill="#0468B1"/>
<path d="M22.1699 24.8047C19.0059 24.8047 16.4043 27.4063 16.4043 30.5703C16.4043 32.1875 17.1074 33.6641 18.2324 34.7187V41.1875C18.2324 41.75 18.5137 42.2422 19.0059 42.5234C19.498 42.8047 20.0605 42.8047 20.5527 42.5234L22.0996 41.6094L23.6465 42.5234C23.8574 42.6641 24.1387 42.7344 24.4199 42.7344C24.7012 42.7344 24.9824 42.6641 25.1934 42.5234C25.6855 42.2422 25.9668 41.75 25.9668 41.1875V34.7187C27.0918 33.6641 27.7949 32.1875 27.7949 30.5703C27.8652 27.3359 25.334 24.8047 22.1699 24.8047ZM22.1699 27.9688C23.5762 27.9688 24.7715 29.0938 24.7715 30.5703C24.7715 32.0469 23.5762 33.1016 22.1699 33.1016C20.7637 33.1016 19.5684 31.9766 19.5684 30.5C19.5684 29.0234 20.7637 27.9688 22.1699 27.9688ZM22.873 38.4453C22.3809 38.1641 21.8184 38.1641 21.3965 38.4453V36.1953C21.6777 36.1953 21.8887 36.2656 22.1699 36.2656C22.4512 36.2656 22.6621 36.2656 22.9434 36.1953V38.4453H22.873Z" fill="#0468B1"/>
</svg>
