<svg width="38" height="48" viewBox="0 0 38 48" fill="none" xmlns="http://www.w3.org/2000/svg">
<path d="M36.1859 12.009L25.6203 1.59648C25.0078 0.983984 24.1656 0.677734 23.3234 0.677734H4.94844C2.34531 0.677734 0.125 2.82148 0.125 5.50117V42.2512C0.125 44.8543 2.26875 47.0746 4.94844 47.0746H32.2812C34.8844 47.0746 37.1047 44.9309 37.1047 42.2512V14.3059C37.1047 13.4637 36.7984 12.6215 36.1859 12.009ZM25.6969 6.49648L31.4391 12.1621H25.6969V6.49648ZM32.3578 43.5527H4.94844C4.18281 43.5527 3.57031 42.9402 3.57031 42.1746V5.42461C3.57031 4.65898 4.18281 4.04648 4.94844 4.04648H22.2516V13.8465C22.2516 14.7652 23.0172 15.6074 24.0125 15.6074H33.7359V42.1746C33.6594 42.9402 33.0469 43.5527 32.3578 43.5527Z" fill="#0468B1"/>
<path d="M28.0703 31.3026C27.1516 31.3026 26.3094 32.0683 26.3094 33.0636V35.5901H10.9969V32.987C10.9969 32.0683 10.2312 31.2261 9.23594 31.2261C8.24062 31.2261 7.475 31.9917 7.475 32.987V35.9729C7.475 37.6573 8.85312 38.9589 10.4609 38.9589H26.6156C28.3 38.9589 29.6016 37.5808 29.6016 35.9729V32.987C29.7547 32.0683 28.9891 31.3026 28.0703 31.3026Z" fill="#0468B1"/>
<path d="M22.6727 24.3063L20.7586 26.1438V20.0954C20.7586 19.1766 19.993 18.3344 18.9977 18.3344C18.0789 18.3344 17.2367 19.1001 17.2367 20.0954V26.1438L15.3227 24.3063C15.0164 24.0001 14.557 23.8469 14.0977 23.8469C13.6383 23.8469 13.1789 24.0001 12.8727 24.3829C12.1836 25.0719 12.2602 26.1438 12.8727 26.8329L17.6195 31.5032C18.3086 32.1157 19.3805 32.1923 19.993 31.5032L24.8164 26.8329C25.5055 26.1438 25.5055 25.0719 24.893 24.3829C24.4336 23.6938 23.3617 23.6938 22.6727 24.3063Z" fill="#0468B1"/>
</svg>
