<svg width="25" height="26" viewBox="0 0 25 26" fill="none" xmlns="http://www.w3.org/2000/svg">
<g clip-path="url(#clip0_778_368)">
<path d="M12.7095 23.5C10.6387 23.5034 8.6156 22.8663 6.90712 21.6729C6.12796 22.0911 4.37554 22.1838 3.61107 22.0915C2.49975 21.9572 1.33372 21.018 2.4566 20.1045C4.1954 18.6902 3.72846 18.1299 3.72846 18.1299C2.86712 16.563 2.41609 14.7963 2.41887 13C2.41887 7.20099 7.02615 2.5 12.7095 2.5C18.3927 2.5 23 7.20099 23 13C23 18.799 18.3927 23.5 12.7095 23.5ZM12.7095 4.0366C11.1396 4.03783 9.59821 4.46475 8.24336 5.2736C6.8885 6.08245 5.76887 7.24415 4.9992 8.63965C4.22953 10.0351 3.8375 11.6143 3.86328 13.2152C3.88907 14.8161 4.33174 16.3812 5.14593 17.7502C5.14593 17.7502 5.72484 19.2846 4.23855 20.4268C5.16931 20.7469 7.13681 20.1583 7.23755 20.1583C8.34657 21.0475 9.64793 21.6533 11.0331 21.9254C12.4183 22.1975 13.8473 22.128 15.2008 21.7225C16.5543 21.3171 17.7931 20.5876 18.8141 19.5947C19.835 18.6019 20.6084 17.3745 21.0699 16.015C21.5313 14.6554 21.6674 13.2031 21.4668 11.779C21.2662 10.3549 20.7347 9.0003 19.9167 7.82822C19.0986 6.65613 18.0177 5.70047 16.764 5.04092C15.5103 4.38136 14.1201 4.03702 12.7095 4.0366ZM17.4443 15.6461C16.3601 15.6461 15.526 14.9189 15.526 13.6965C15.526 12.4742 16.3146 11.6928 17.5049 11.6928C18.6423 11.6928 19.4005 12.4896 19.4005 13.6269C19.4005 15.0117 18.4376 15.6461 17.4443 15.6461ZM17.4747 12.5283C16.9212 12.5283 16.7164 13.1085 16.7164 13.6656C16.7164 14.3154 16.9818 14.8028 17.4747 14.8028C17.922 14.8028 18.2101 14.3463 18.2101 13.6656C18.2101 13.1008 17.9978 12.5283 17.4747 12.5283ZM14.2525 15.561H13.6315C13.3365 15.561 13.3957 15.1264 13.3957 15.1264V13.5031C13.3957 12.9538 13.2213 12.6366 12.8498 12.6366C12.5844 12.6366 12.3949 12.8223 12.319 13.0467C12.2886 13.1442 12.2732 13.246 12.2735 13.3484V15.1898C12.2735 15.1898 12.2771 15.561 11.9544 15.561H11.442C11.442 15.561 11.1514 15.5383 11.1514 15.1581V13.4412C11.1514 12.9616 10.9846 12.6366 10.6206 12.6366C10.325 12.6366 10.1506 12.8687 10.0823 13.0622C10.0488 13.1562 10.0333 13.256 10.0368 13.3561V15.1581C10.0368 15.1581 10.0769 15.561 9.78061 15.561H9.28373C8.91466 15.561 8.91466 15.1581 8.91466 15.1581V12.9848C8.91466 12.616 8.89415 12.0059 8.89415 12.0059C8.89305 11.9747 8.89845 11.9436 8.90999 11.9147C8.92152 11.8858 8.93893 11.8597 8.96107 11.8382C8.9832 11.8167 9.00957 11.8002 9.03841 11.7898C9.06726 11.7794 9.09795 11.7753 9.12844 11.7779H9.60981C9.67341 11.7782 9.73494 11.8009 9.78393 11.8423C9.83292 11.8836 9.86633 11.9411 9.87848 12.0047L9.90793 12.2885H9.93065C10.0899 12.0486 10.416 11.6928 11.0528 11.6928C11.5305 11.6928 11.9096 11.9404 12.0688 12.3349H12.084C12.2119 12.152 12.3743 11.9968 12.5616 11.8785C12.7753 11.7513 13.0194 11.687 13.2668 11.6928C13.9795 11.6928 14.5178 12.2034 14.5178 13.3329V15.1581C14.5178 15.5341 14.2525 15.561 14.2525 15.561ZM7.10268 10.9936C6.73878 10.9936 6.49612 10.7306 6.50376 10.4056C6.49612 10.0653 6.73878 9.80992 7.11031 9.80992C7.48185 9.80992 7.71687 10.0653 7.72442 10.4056C7.72442 10.7306 7.48185 10.9936 7.10268 10.9936ZM6.76823 11.7779H7.43591C7.43591 11.7779 7.68652 11.78 7.68652 12.0686V15.2215C7.68652 15.2215 7.70195 15.561 7.42041 15.561H6.73714C6.73714 15.561 6.53403 15.5484 6.53403 15.269V12.021C6.53403 12.021 6.53484 11.7779 6.76823 11.7779Z" fill="white"/>
</g>
<defs>
<clipPath id="clip0_778_368">
<rect width="21" height="21" fill="white" transform="translate(2 2.5)"/>
</clipPath>
</defs>
</svg>
