<svg width="17" height="21" viewBox="0 0 17 21" fill="none" xmlns="http://www.w3.org/2000/svg">
<path d="M12.8091 5.5C12.8091 6.56087 12.3877 7.57828 11.6375 8.32843C10.8874 9.07857 9.86995 9.5 8.80908 9.5C7.74822 9.5 6.7308 9.07857 5.98065 8.32843C5.23051 7.57828 4.80908 6.56087 4.80908 5.5C4.80908 4.43913 5.23051 3.42172 5.98065 2.67157C6.7308 1.92143 7.74822 1.5 8.80908 1.5C9.86995 1.5 10.8874 1.92143 11.6375 2.67157C12.3877 3.42172 12.8091 4.43913 12.8091 5.5ZM8.80908 12.5C6.95257 12.5 5.17209 13.2375 3.85933 14.5503C2.54658 15.863 1.80908 17.6435 1.80908 19.5H15.8091C15.8091 17.6435 15.0716 15.863 13.7588 14.5503C12.4461 13.2375 10.6656 12.5 8.80908 12.5Z" stroke="#0468B1" stroke-width="2" stroke-linecap="round" stroke-linejoin="round"/>
</svg>
