<svg width="37" height="37" viewBox="0 0 37 37" fill="none" xmlns="http://www.w3.org/2000/svg">
<path d="M12.6222 18.5001L16.3722 22.2501L23.8722 14.7501M10.4378 4.80696C11.7827 4.69962 13.0596 4.17078 14.0865 3.29571C15.247 2.30622 16.7221 1.7627 18.2472 1.7627C19.7722 1.7627 21.2473 2.30622 22.4078 3.29571C23.4348 4.17078 24.7116 4.69962 26.0565 4.80696C27.5767 4.9279 29.004 5.58663 30.0823 6.66494C31.1606 7.74325 31.8193 9.17055 31.9403 10.6907C32.0476 12.0357 32.5765 13.3125 33.4515 14.3395C34.441 15.4999 34.9845 16.975 34.9845 18.5001C34.9845 20.0251 34.441 21.5003 33.4515 22.6607C32.5765 23.6877 32.0476 24.9645 31.9403 26.3095C31.8193 27.8296 31.1606 29.2569 30.0823 30.3352C29.004 31.4135 27.5767 32.0723 26.0565 32.1932C24.7116 32.3006 23.4348 32.8294 22.4078 33.7045C21.2473 34.694 19.7722 35.2375 18.2472 35.2375C16.7221 35.2375 15.247 34.694 14.0865 33.7045C13.0596 32.8294 11.7827 32.3006 10.4378 32.1932C8.91762 32.0723 7.49032 31.4135 6.41201 30.3352C5.3337 29.2569 4.67497 27.8296 4.55403 26.3095C4.44669 24.9645 3.91785 23.6877 3.04278 22.6607C2.05329 21.5003 1.50977 20.0251 1.50977 18.5001C1.50977 16.975 2.05329 15.4999 3.04278 14.3395C3.91785 13.3125 4.44669 12.0357 4.55403 10.6907C4.67497 9.17055 5.3337 7.74325 6.41201 6.66494C7.49032 5.58663 8.91762 4.9279 10.4378 4.80696Z" stroke="#0468B1" stroke-width="3" stroke-linecap="round" stroke-linejoin="round"/>
</svg>
