<svg width="14" height="18" viewBox="0 0 14 18" fill="none" xmlns="http://www.w3.org/2000/svg">
<path d="M2.83398 0.666748C2.17094 0.666748 1.53506 0.93014 1.06622 1.39898C0.597376 1.86782 0.333984 2.50371 0.333984 3.16675V14.8334C0.333984 15.4965 0.597376 16.1323 1.06622 16.6012C1.53506 17.07 2.17094 17.3334 2.83398 17.3334H11.1673C11.8304 17.3334 12.4662 17.07 12.9351 16.6012C13.4039 16.1323 13.6673 15.4965 13.6673 14.8334V14.0001C13.6673 13.5398 13.2942 13.1667 12.834 13.1667C12.3737 13.1667 12.0007 13.5398 12.0007 14.0001V14.8334C12.0007 15.0544 11.9129 15.2664 11.7566 15.4227C11.6003 15.579 11.3883 15.6667 11.1673 15.6667H2.83398C2.61297 15.6667 2.40101 15.579 2.24473 15.4227C2.08845 15.2664 2.00065 15.0544 2.00065 14.8334V3.16675C2.00065 2.94573 2.08845 2.73377 2.24473 2.57749C2.40101 2.42121 2.61297 2.33341 2.83398 2.33341H11.1673C11.3883 2.33341 11.6003 2.42121 11.7566 2.57749C11.9129 2.73377 12.0007 2.94573 12.0007 3.16675V4.00008C12.0007 4.46032 12.3737 4.83341 12.834 4.83341C13.2942 4.83341 13.6673 4.46032 13.6673 4.00008V3.16675C13.6673 2.50371 13.4039 1.86782 12.9351 1.39898C12.4662 0.93014 11.8304 0.666748 11.1673 0.666748H2.83398Z" fill="#F04438"/>
<path d="M10.9232 5.91083C10.5978 5.58539 10.0702 5.58539 9.74473 5.91083C9.41929 6.23626 9.41929 6.7639 9.74473 7.08934L10.8221 8.16675H7.00065C6.54041 8.16675 6.16732 8.53984 6.16732 9.00008C6.16732 9.46032 6.54041 9.83341 7.00065 9.83341H10.8221L9.74473 10.9108C9.41929 11.2363 9.41929 11.7639 9.74473 12.0893C10.0702 12.4148 10.5978 12.4148 10.9232 12.0893L13.4232 9.58934C13.7487 9.2639 13.7487 8.73626 13.4232 8.41083L10.9232 5.91083Z" fill="#F04438"/>
</svg>
