<svg width="20" height="21" viewBox="0 0 20 21" fill="none" xmlns="http://www.w3.org/2000/svg">
<path d="M7 10.8501L9 12.8501L13 8.8501M19 10.8501C19 12.032 18.7672 13.2023 18.3149 14.2942C17.8626 15.3862 17.1997 16.3783 16.364 17.2141C15.5282 18.0498 14.5361 18.7127 13.4442 19.165C12.3522 19.6173 11.1819 19.8501 10 19.8501C8.8181 19.8501 7.64778 19.6173 6.55585 19.165C5.46392 18.7127 4.47177 18.0498 3.63604 17.2141C2.80031 16.3783 2.13738 15.3862 1.68508 14.2942C1.23279 13.2023 1 12.032 1 10.8501C1 8.46315 1.94821 6.17396 3.63604 4.48614C5.32387 2.79831 7.61305 1.8501 10 1.8501C12.3869 1.8501 14.6761 2.79831 16.364 4.48614C18.0518 6.17396 19 8.46315 19 10.8501Z" stroke="#0468B1" stroke-width="2" stroke-linecap="round" stroke-linejoin="round"/>
</svg>
